<svg xmlns="http://www.w3.org/2000/svg" viewBox="0 0 214.51 306.36"><defs><style>.cls-1{isolation:isolate;}.cls-2{fill:#72a7d3;}.cls-3{fill:#e8f4fc;}.cls-4{fill:#a1c2e2;}.cls-5{fill:#4061bf;}.cls-6{fill:none;stroke:#231f20;stroke-miterlimit:10;}.cls-7{fill:#bababa;}.cls-8{fill:#e52c2c;}.cls-9{fill:#2ac461;}.cls-10{fill:#f9f44b;}.cls-11{fill:#4475e2;}.cls-12{fill:#3f3f3f;}.cls-13,.cls-14{fill:#2d2d2d;}.cls-14{opacity:0.5;mix-blend-mode:multiply;}.cls-15{fill:#aaa;mix-blend-mode:soft-light;}</style></defs><title>astro</title><g class="cls-1"><g id="Perso"><g id="_Groupe_" data-name="&lt;Groupe&gt;"><g id="_Groupe_2" data-name="&lt;Groupe&gt;"><rect id="_Rectangle_" data-name="&lt;Rectangle&gt;" class="cls-2" x="847.05" y="842.72" width="108.89" height="122.56" rx="8.13" ry="8.13" transform="translate(-443.01 -988.57) rotate(18.88)"/></g><g id="_Groupe_3" data-name="&lt;Groupe&gt;"><rect id="_Rectangle_2" data-name="&lt;Rectangle&gt;" class="cls-3" x="861.28" y="847.63" width="82.67" height="106.17" transform="translate(-444.01 -989.11) rotate(18.88)"/><path id="_Tracé_" data-name="&lt;Tracé&gt;" class="cls-4" d="M879.87,839.49c6.82,6.83,17.8,11.81,33,17,17.84,6.1,30.9,8.87,41.32,5.74l-73.49-25.13Z" transform="translate(-784.07 -745.47)"/><path id="_Tracé_2" data-name="&lt;Tracé&gt;" class="cls-3" d="M932.33,925.94l-68.66-23.49c-9.34-3.19-12,5.7-15.75,16.54h0c-3.71,10.85-7,19.53,2.32,22.73L918.9,965.2c9.34,3.2,12-5.7,15.75-16.54h0C938.36,937.82,941.67,929.13,932.33,925.94Z" transform="translate(-784.07 -745.47)"/><rect id="_Rectangle_3" data-name="&lt;Rectangle&gt;" class="cls-3" x="839.32" y="940.58" width="30.67" height="39.91" transform="translate(-427.23 -970.37) rotate(18.88)"/><rect id="_Rectangle_4" data-name="&lt;Rectangle&gt;" class="cls-5" x="832.39" y="979.34" width="30.67" height="2.92" transform="matrix(0.95, 0.32, -0.32, 0.95, -421.05, -967.03)"/><polygon id="_Tracé_3" data-name="&lt;Tracé&gt;" class="cls-3" points="63.2 284.01 34.18 274.08 46.46 230.99 79.57 242.31 63.2 284.01"/><path id="_Tracé_4" data-name="&lt;Tracé&gt;" class="cls-4" d="M810.21,1016.81s1.27-20.18,13.6-13.5,18.26,24.39,18.26,24.39Z" transform="translate(-784.07 -745.47)"/><rect id="_Rectangle_5" data-name="&lt;Rectangle&gt;" class="cls-5" x="808.69" y="1023.07" width="39.17" height="2.92" transform="translate(-407.94 -958.39) rotate(18.88)"/><path id="_Tracé_5" data-name="&lt;Tracé&gt;" class="cls-4" d="M843.65,1028.24l3.62,1.24,2.89-7.36C845.26,1022.36,843.65,1028.24,843.65,1028.24Z" transform="translate(-784.07 -745.47)"/><rect id="_Rectangle_6" data-name="&lt;Rectangle&gt;" class="cls-3" x="888.56" y="957.42" width="30.67" height="39.91" transform="translate(658.76 1449.21) rotate(-161.12)"/><rect id="_Rectangle_7" data-name="&lt;Rectangle&gt;" class="cls-5" x="881.63" y="996.18" width="30.67" height="2.92" transform="translate(638.72 1486.39) rotate(-161.12)"/><polygon id="_Tracé_6" data-name="&lt;Tracé&gt;" class="cls-3" points="67.74 76.61 50.24 102.25 82.54 118.89 96.59 91.63 67.74 76.61"/><polygon id="_Tracé_7" data-name="&lt;Tracé&gt;" class="cls-6" points="39.76 48.49 18.18 70.28 45.02 99.56 69.29 75.04 39.76 48.49"/><polygon id="_Tracé_8" data-name="&lt;Tracé&gt;" class="cls-3" points="39.76 48.49 18.18 70.28 45.02 99.56 69.29 75.04 39.76 48.49"/><rect id="_Rectangle_8" data-name="&lt;Rectangle&gt;" class="cls-5" x="796.68" y="803.8" width="31.83" height="1.25" transform="translate(-1114.84 70.33) rotate(-45.28)"/><path id="_Rectangle_9" data-name="&lt;Rectangle&gt;" class="cls-3" d="M799.51,776.16H806a9.87,9.87,0,0,1,9.87,9.87v22.79a0,0,0,0,1,0,0H785.22a0,0,0,0,1,0,0V790.45A14.29,14.29,0,0,1,799.51,776.16Z" transform="translate(-1109.93 58.22) rotate(-45.28)"/><polygon id="_Tracé_9" data-name="&lt;Tracé&gt;" class="cls-3" points="83.42 290.93 112.44 300.85 129.13 259.26 96.01 247.94 83.42 290.93"/><path id="_Tracé_10" data-name="&lt;Tracé&gt;" class="cls-4" d="M904.56,1049.07s11.35-16.72-2.49-19-29.37,8.1-29.37,8.1Z" transform="translate(-784.07 -745.47)"/><rect id="_Rectangle_10" data-name="&lt;Rectangle&gt;" class="cls-5" x="865.97" y="1042.66" width="39.17" height="2.92" transform="translate(601.48 1573.16) rotate(-161.12)"/><path id="_Tracé_11" data-name="&lt;Tracé&gt;" class="cls-4" d="M871.12,1037.64l-3.62-1.24,2.22-7.59C873.45,1032,871.12,1037.64,871.12,1037.64Z" transform="translate(-784.07 -745.47)"/><path id="_Tracé_12" data-name="&lt;Tracé&gt;" class="cls-4" d="M822.55,793.49l3-9.22a4.5,4.5,0,0,0-8.56-2.79l-2.28,7c-3.23-.06-6.84.84-9.15,4.4-5.06,7.77,4.54,13.17,4.54,13.17Z" transform="translate(-784.07 -745.47)"/><polygon id="_Tracé_13" data-name="&lt;Tracé&gt;" class="cls-3" points="173.3 202.47 203.23 195.76 196.41 156.64 162.75 164.19 173.3 202.47"/><rect id="_Rectangle_11" data-name="&lt;Rectangle&gt;" class="cls-5" x="956.56" y="944.57" width="31.83" height="1.25" transform="translate(1344.25 909.04) rotate(167.35)"/><path id="_Tracé_14" data-name="&lt;Tracé&gt;" class="cls-3" d="M991.6,960.38l-4-17.93-21,4.72h0l-8.93,2,0,.13L952,959.89a4.5,4.5,0,1,0,8,4.23l.72-1.35,1.93,8.64a9.88,9.88,0,0,0,11.8,7.47l6.34-1.43A14.29,14.29,0,0,0,991.6,960.38Z" transform="translate(-784.07 -745.47)"/><path id="_Tracé_15" data-name="&lt;Tracé&gt;" class="cls-5" d="M977.14,902.86a7.22,7.22,0,0,0-1.76-5.7l-26.39,12Z" transform="translate(-784.07 -745.47)"/><polygon id="_Tracé_16" data-name="&lt;Tracé&gt;" class="cls-3" points="178.27 123.06 161.4 160.03 163.39 164.4 191.3 151.69 178.27 123.06"/><path id="_Tracé_17" data-name="&lt;Tracé&gt;" class="cls-5" d="M958.9,863.86c2.07.27,3.56,3.1,3.44,4.67l-16.86,37-.69-.38Z" transform="translate(-784.07 -745.47)"/><path id="_Tracé_18" data-name="&lt;Tracé&gt;" class="cls-5" d="M866.62,864.36a7.8,7.8,0,0,0,4.11,1.84l9.93-29.1Z" transform="translate(-784.07 -745.47)"/><path id="_Tracé_19" data-name="&lt;Tracé&gt;" class="cls-5" d="M829.93,844.18h0a8.42,8.42,0,0,0,4.39,3.54l17.49-25.64Z" transform="translate(-784.07 -745.47)"/><rect id="_Rectangle_12" data-name="&lt;Rectangle&gt;" class="cls-5" x="878.71" y="875.92" width="54" height="31.46" transform="translate(-446.78 -990.6) rotate(18.88)"/><rect id="_Rectangle_13" data-name="&lt;Rectangle&gt;" class="cls-7" x="880.3" y="877.31" width="50.83" height="28.67" transform="translate(-446.78 -990.6) rotate(18.88)"/><path id="_Tracé_20" data-name="&lt;Tracé&gt;" class="cls-8" d="M893.56,879.56a2.5,2.5,0,1,1-1.56-3.18A2.51,2.51,0,0,1,893.56,879.56Z" transform="translate(-784.07 -745.47)"/><path id="_Tracé_21" data-name="&lt;Tracé&gt;" class="cls-9" d="M888.7,893.75a2.5,2.5,0,1,1-1.55-3.17A2.49,2.49,0,0,1,888.7,893.75Z" transform="translate(-784.07 -745.47)"/><path id="_Tracé_22" data-name="&lt;Tracé&gt;" class="cls-10" d="M891.13,886.66a2.5,2.5,0,1,1-1.56-3.18A2.5,2.5,0,0,1,891.13,886.66Z" transform="translate(-784.07 -745.47)"/><rect id="_Rectangle_14" data-name="&lt;Rectangle&gt;" class="cls-11" x="895.28" y="884.37" width="18.5" height="13.74" transform="translate(-446.98 -990.24) rotate(18.88)"/><rect id="_Rectangle_15" data-name="&lt;Rectangle&gt;" class="cls-12" x="919.48" y="886.84" width="10.04" height="2.37" transform="translate(-446.94 -996.87) rotate(18.88)"/><rect id="_Rectangle_16" data-name="&lt;Rectangle&gt;" class="cls-12" x="917.94" y="891.34" width="10.04" height="2.37" transform="translate(-445.57 -996.13) rotate(18.88)"/><rect id="_Rectangle_17" data-name="&lt;Rectangle&gt;" class="cls-12" x="916.4" y="895.83" width="10.04" height="2.37" transform="translate(-444.19 -995.4) rotate(18.88)"/><rect id="_Rectangle_18" data-name="&lt;Rectangle&gt;" class="cls-12" x="914.87" y="900.32" width="10.04" height="2.37" transform="translate(-442.82 -994.66) rotate(18.88)"/><rect id="_Rectangle_19" data-name="&lt;Rectangle&gt;" class="cls-12" x="913.33" y="904.81" width="10.04" height="2.37" transform="translate(-441.45 -993.92) rotate(18.88)"/><path id="_Tracé_23" data-name="&lt;Tracé&gt;" class="cls-4" d="M864,884.11l14.11,4.83-1.29,3.78-14.11-4.83a2,2,0,0,1-1.25-2.54h0A2,2,0,0,1,864,884.11Z" transform="translate(-784.07 -745.47)"/><path id="_Tracé_24" data-name="&lt;Tracé&gt;" class="cls-4" d="M869.41,868.26l14.11,4.83-1.29,3.78-14.11-4.82a2,2,0,0,1-1.25-2.54h0A2,2,0,0,1,869.41,868.26Z" transform="translate(-784.07 -745.47)"/><path id="_Tracé_25" data-name="&lt;Tracé&gt;" class="cls-4" d="M947.44,899.18l-14.12-4.83,1.3-3.79,14.11,4.83a2,2,0,0,1,1.25,2.54h0A2,2,0,0,1,947.44,899.18Z" transform="translate(-784.07 -745.47)"/><path id="_Tracé_26" data-name="&lt;Tracé&gt;" class="cls-4" d="M942,915,927.9,910.2l1.3-3.79,14.11,4.83a2,2,0,0,1,1.25,2.54h0A2,2,0,0,1,942,915Z" transform="translate(-784.07 -745.47)"/><path id="_Tracé_27" data-name="&lt;Tracé&gt;" class="cls-4" d="M845.84,938.92h0L867,950l-22.76-15.4A7.49,7.49,0,0,0,845.84,938.92Z" transform="translate(-784.07 -745.47)"/><path id="_Tracé_28" data-name="&lt;Tracé&gt;" class="cls-4" d="M928,963.26l-27-1.61,23,4h0A7.49,7.49,0,0,0,928,963.26Z" transform="translate(-784.07 -745.47)"/><polygon id="_Tracé_29" data-name="&lt;Tracé&gt;" class="cls-4" points="50.24 102.25 84.47 115.15 82.54 118.89 50.24 102.25"/><polygon id="_Tracé_30" data-name="&lt;Tracé&gt;" class="cls-4" points="163.48 155.46 164.91 163.71 163.39 164.4 161.4 160.03 163.48 155.46"/><polygon id="_Tracé_31" data-name="&lt;Tracé&gt;" class="cls-4" points="18.18 70.28 47.31 97.36 45.02 99.56 18.18 70.28"/><polygon id="_Tracé_32" data-name="&lt;Tracé&gt;" class="cls-4" points="162.75 164.19 166.18 163.42 173.3 202.47 162.75 164.19"/><polygon id="_Tracé_33" data-name="&lt;Tracé&gt;" class="cls-4" points="57.93 204.71 52.55 229.99 49.61 228.98 57.93 204.71"/><polygon id="_Tracé_34" data-name="&lt;Tracé&gt;" class="cls-4" points="106.71 222.84 102.22 246.98 98.85 245.82 106.71 222.84"/></g><g id="_Groupe_4" data-name="&lt;Groupe&gt;"><circle id="_Tracé_35" data-name="&lt;Tracé&gt;" class="cls-3" cx="936.39" cy="801.94" r="55.74" transform="translate(-1076.87 151.54) rotate(-45)"/><path id="_Tracé_36" data-name="&lt;Tracé&gt;" class="cls-4" d="M891.77,790.83c12-35.2,41.64-44.66,70.77-34.7a67.54,67.54,0,0,1,17,8.52,62.63,62.63,0,0,0-25.09-15.45c-29.13-10-58.74-.49-70.77,34.7-11.16,32.62-8.54,48,8.24,59C882.73,832.27,882.75,817.18,891.77,790.83Z" transform="translate(-784.07 -745.47)"/><ellipse id="_Tracé_37" data-name="&lt;Tracé&gt;" class="cls-7" cx="935.12" cy="805.66" rx="43.63" ry="53.37" transform="translate(-913.88 684.26) rotate(-71.12)"/><ellipse id="_Tracé_38" data-name="&lt;Tracé&gt;" class="cls-13" cx="935.12" cy="805.66" rx="42.5" ry="51.99" transform="translate(-913.88 684.26) rotate(-71.12)"/><path id="_Tracé_39" data-name="&lt;Tracé&gt;" class="cls-14" d="M931.24,839.16c-41.59-18.58-42.43-32.49-30.14-60a38.45,38.45,0,0,1,12.65-15.77c-12.86,3.39-23.19,11.9-27.82,25.45-9.76,28.52-7.66,42.3,35.44,57,23.8,8.14,37.53,8.85,46.7,3.06C959.25,849.56,947.63,846.48,931.24,839.16Z" transform="translate(-784.07 -745.47)"/><g id="_Groupe_5" data-name="&lt;Groupe&gt;"><path id="_Tracé_40" data-name="&lt;Tracé&gt;" class="cls-7" d="M883.66,783.9c.24-.7.5-1.38.75-2.06l-7.55-2.58a1.67,1.67,0,0,0-2.12.77L866.2,801a1.88,1.88,0,0,0,1.15,2.5L877.62,807A133.76,133.76,0,0,1,883.66,783.9Z" transform="translate(-784.07 -745.47)"/><path id="_Tracé_41" data-name="&lt;Tracé&gt;" class="cls-13" d="M879.66,786.69a1.81,1.81,0,1,1-1.13-2.3A1.81,1.81,0,0,1,879.66,786.69Z" transform="translate(-784.07 -745.47)"/><path id="_Tracé_42" data-name="&lt;Tracé&gt;" class="cls-5" d="M877.49,798.25a3.5,3.5,0,1,1-2.18-4.44A3.5,3.5,0,0,1,877.49,798.25Z" transform="translate(-784.07 -745.47)"/><path id="_Tracé_43" data-name="&lt;Tracé&gt;" class="cls-13" d="M876.17,797.81a2.11,2.11,0,1,1-1.31-2.68A2.1,2.1,0,0,1,876.17,797.81Z" transform="translate(-784.07 -745.47)"/></g><g id="_Groupe_6" data-name="&lt;Groupe&gt;"><path id="_Tracé_44" data-name="&lt;Tracé&gt;" class="cls-7" d="M998.54,822.37a1.68,1.68,0,0,0-1.21-1.91l-7.53-2.57c-.22.69-.43,1.39-.67,2.09a133.68,133.68,0,0,1-9.36,21.94l10.25,3.5a1.87,1.87,0,0,0,2.44-1.27Z" transform="translate(-784.07 -745.47)"/><path id="_Tracé_45" data-name="&lt;Tracé&gt;" class="cls-13" d="M990.56,824.62a1.81,1.81,0,1,0,2.3-1.13A1.81,1.81,0,0,0,990.56,824.62Z" transform="translate(-784.07 -745.47)"/><path id="_Tracé_46" data-name="&lt;Tracé&gt;" class="cls-5" d="M985.2,835.1a3.5,3.5,0,1,0,4.44-2.18A3.5,3.5,0,0,0,985.2,835.1Z" transform="translate(-784.07 -745.47)"/><path id="_Tracé_47" data-name="&lt;Tracé&gt;" class="cls-13" d="M986.51,835.54a2.11,2.11,0,1,0,2.68-1.31A2.1,2.1,0,0,0,986.51,835.54Z" transform="translate(-784.07 -745.47)"/></g><path id="_Tracé_48" data-name="&lt;Tracé&gt;" class="cls-15" d="M960.1,785.54c2.92-3.89,12.86,3.73,16.8,10.76s4.73,13.26,1.27,14.83c-4.69,2.13-4.58-5.92-9.71-12.17C965.45,795.29,957,789.64,960.1,785.54Z" transform="translate(-784.07 -745.47)"/></g></g></g></g></svg>