<svg id="Main" xmlns="http://www.w3.org/2000/svg" xmlns:xlink="http://www.w3.org/1999/xlink" viewBox="0 0 627.65 116.61"><defs><style>.cls-1,.cls-2,.cls-3,.cls-4{fill:#ff0;stroke-miterlimit:10;stroke-width:2px;}.cls-1{stroke:url(#Dégradé_sans_nom_76);}.cls-2{stroke:url(#Dégradé_sans_nom_76-2);}.cls-3{stroke:url(#Dégradé_sans_nom_76-3);}.cls-4{stroke:url(#Dégradé_sans_nom_76-4);}</style><linearGradient id="Dégradé_sans_nom_76" x1="255.86" y1="417.95" x2="325.96" y2="417.95" gradientUnits="userSpaceOnUse"><stop offset="0" stop-color="#c1165a"/><stop offset="1" stop-color="#ff7300"/></linearGradient><linearGradient id="Dégradé_sans_nom_76-2" x1="312.05" y1="432.45" x2="377.72" y2="432.45" xlink:href="#Dégradé_sans_nom_76"/><linearGradient id="Dégradé_sans_nom_76-3" x1="388.55" y1="428.2" x2="649.73" y2="428.2" xlink:href="#Dégradé_sans_nom_76"/><linearGradient id="Dégradé_sans_nom_76-4" x1="641.55" y1="414.2" x2="883.52" y2="414.2" xlink:href="#Dégradé_sans_nom_76"/></defs><title>charognarde</title><g id="header"><g id="Charognarde"><path class="cls-1" d="M300.66,451.7c13.4,0,8.5,9.5,6.1,13.1a1.23,1.23,0,0,1-1,.5,1.61,1.61,0,0,1-.9-.3c-1.2-1.2-3.8-2.9-9.1-3.2-.7,0-1.4-.1-2.1-.1-8.4,0-19.61,3-28,3-8.8-.1-9.9-9.6-8-9.6h.1c2.2,0,2.7,2.9,8.2,3.3-5.2-13.6,29-68.8,45.91-81.71-25.4,6-36.11,30.51-39.41,42.41-.2.5-.5.8-.9.8-2.3,0-6.9-11.1-4-16.4,13.1-24.91,40.61-32.91,52.11-32.91,3.4,0,5.4.7,5.3,1.8l-.1.3c-17,10.7-40.9,60.41-47.31,84.41C283.56,455.6,292.76,451.7,300.66,451.7Z" transform="translate(-255.86 -369.59)"/><path class="cls-2" d="M376.66,424.3a3.67,3.67,0,0,1-.2,2c-5,9.4-20.6,31.1-31.11,31.1-3.5,0-5.6-4.2-5.6-9.3a19.48,19.48,0,0,1,.9-5.8c-1.6,1.8-10.2,15-18.9,15-6.1,0-8.7-4.9-8.7-11.5,0-14.3,13.1-38.3,28.3-38.3,7.11,0,10.61,5.5,12.31,8.3.7-.8,2.2-3,4.6-3.1h.6c2.9,0,6.2,1.1,6.2,4.5-7.6,7.9-16.5,25.8-16.5,32.1,0,1.6.3,1.9,1.4,1.9,5.9-.1,17-14.7,24.1-26.9.4-.8.8-1.3,1.2-1.3C375.86,423,376.26,423.5,376.66,424.3Zm-31.2-10.9h-.11c-9.8.1-22.8,25.2-22.8,34.9,0,2.5.8,4.1,2.6,4.1,6.6,0,17.2-17.1,23.91-29.1a42.16,42.16,0,0,1,2.5-4.8C351.06,417.7,349.56,413.4,345.46,413.4Z" transform="translate(-255.86 -369.59)"/><path class="cls-3" d="M642.85,411.9h-.8c-1.7.1-4,.8-5.9,3.9-.7-2.9-6.6-8.4-11.7-8.3-13.76.24-23.18,15.61-26.29,29-3,3.31-6.28,6.17-9.11,6.9,9.7-15.2,13.1-34.7-1.8-36.3-.5,0-.9-.1-1.4-.1-12.35,0-25.58,16.71-28.71,30.81C551.8,445,545.51,452,541.55,451.9c-4.5-.2,9.8-21.8,10.9-30.4.1-1,.5-5.2-3-7.3-6.3-3.9-5.6-6.5-7.9-7.3a4.4,4.4,0,0,0-1-.2,2.43,2.43,0,0,0-2,1.2c-.9,1.1,2.8,6.6-15.7,31.4a1.19,1.19,0,0,0-.09.15c-5.19,6.64-10.44,11.69-13.91,11.75-1.1,0-1.4-.3-1.4-1.9,0-6.3,8.9-24.2,16.51-32.1,0-3.4-3.3-4.5-6.21-4.5h-.6c-2.4.1-3.9,2.3-4.6,3.1-1.7-2.8-5.2-8.3-12.3-8.3-12.39,0-23.39,16-27,29.61-4.2,6-8.88,11.29-12.57,11.29h-.4c-.29,0-.6,0-.6-.4,0-4.8,13.91-25,13.91-30.5v-.1c-.1-5-3.9-8.3-7-8.5h-.3c-5,0-16,8.8-26.31,22,8.5-19.5,21.9-44.81,36.31-57.41a.82.82,0,0,0,.5-.8c0-.9-2.2-1.5-5.1-1.5-3.5,0-7.81.8-10.51,2.8-7.88,7.46-22.65,33.92-32.83,61.66-7.16,8.89-14.46,16.05-22.37,16.05h-.3c-3.7-.1-4.7-3.4-4.5-7,.9-15.2,13.3-32.4,21.51-32.4a4.12,4.12,0,0,1,1.2.1c-3.7,8.6-1.1,11.9.3,11.9,2.8,0-.2-4.8,10.5-15.4,0-.1,3.4-3.5-3.4-3.5-2.2,0-4.5,2.8-5.6,4.3-1-.6-2-3.2-8.41-3.2-13.9,0-27.7,22.1-27.7,37,0,7.5,3.5,13.1,12.3,13.1,8,0,16.19-5.15,23.78-13.24-.69,2.08-1.35,4.17-2,6.24a6.13,6.13,0,0,0,5.7,7.4,5.07,5.07,0,0,0,1.3-.2c.3-.2,1.1-4.6,1.8-6.3,5.9-14,26.51-35,30.11-35.1h.1a.56.56,0,0,1,.5.6c0,3-11.41,18.3-12.51,31.4v.9c0,4.7,3.3,8.4,6.2,8.4,4.62-.12,10.17-5.56,15.13-12,0,.36,0,.71,0,1.06,0,6.6,2.6,11.5,8.7,11.5,8.7,0,17.3-13.2,18.9-15a19.48,19.48,0,0,0-.9,5.8c0,5.1,2.1,9.3,5.6,9.3,6.71,0,15.48-8.84,22.25-17.68,4.92-5.7,13.6-20,14.55-22.82a.55.55,0,0,1,.6-.4.37.37,0,0,1,.3.1c1.2,1,3.4,3.3,2.3,5.7-5.3,10.8-11.6,20.8-11.4,27.1a8.15,8.15,0,0,0,7.9,7.7c4.32,0,10.07-4.76,15.76-11.87.42,5.32,3,9.51,8.74,11.07a13.86,13.86,0,0,0,4,.6c4.5,0,9.3-2.2,15.5-7.7a22.15,22.15,0,0,0,12.41-6.5c0,.57-.09,1.14-.11,1.7-.3,7.6,3.1,12.3,8.7,12.3,4.8,0,10.3-4.7,17.1-14-14.2,27.8-23.7,34.6-29.6,34.6-4.2,0-6.5-3.6-7.3-5.3h-.1c-.5,0-.9,1-.9,2.6,0,3.9,2.6,10.4,11.7,10.6,22.8.5,42.1-62.7,51.9-69.4C649.25,414.6,648,411.9,642.85,411.9Zm-158.8,40.5c-1.8,0-2.6-1.6-2.6-4.1,0-9.7,13-34.8,22.8-34.9h.1c4.1,0,5.6,4.3,6.1,5.1a42.16,42.16,0,0,0-2.5,4.8C501.25,435.3,490.65,452.4,484.05,452.4Zm95.9-9.1a3.2,3.2,0,0,0-3-2.3,4.29,4.29,0,0,0-4.1,4.3,3.47,3.47,0,0,0,1.9,3.2,5.55,5.55,0,0,1-4,2,2.77,2.77,0,0,1-.9-.1c-11.8-3.2,9.5-37.6,18.9-37.6a3.55,3.55,0,0,1,1,.2C595,414.7,587.05,437.5,580,443.3Zm47.2-9.7c-5.9,8.8-13.1,18.1-17.8,18.1-1.7,0-2.8-1.4-2.8-3.6.1-12.2,11.9-33.8,20.3-34.3,3.7,0,5.8,1.7,7.5,4.8C634.35,418.7,628.85,430.3,627.15,433.6Z" transform="translate(-255.86 -369.59)"/><path class="cls-4" d="M881.75,423.7a2.4,2.4,0,0,0-1.7.9c-10,13.3-19.9,27.3-31.2,27.3-4.3,0-6-2.7-6-6.7a21.64,21.64,0,0,1,1.6-7.7,12.42,12.42,0,0,0,5.6,1.3c10.1,0,20.3-11.8,20.3-22,0-7.1-3.7-10.1-9.9-10.1-12.11,0-24.14,16.76-27,30.94C828,445,822.33,450.8,818.85,450.8c-1.2,0-1.7-.6-1.7-2.1,0-11.7,30.5-63.31,41.8-75.21a1.35,1.35,0,0,0,.5-.9c0-1-2-1.6-4.4-1.6-3.1,0-7,.8-9.6,2.8-5.8,6.9-12.3,19.61-23.8,40.21-1.9-2.9-5.3-7.1-11.6-7.1-13.41,0-24.17,17.35-26.52,31.18-5.3,7.07-11.47,13.93-15.38,13.82-4.5-.2,9.8-21.8,10.9-30.4.1-1,.5-5.2-3-7.3-6.3-3.9-5.6-6.5-7.9-7.3a4.4,4.4,0,0,0-1-.2,2.43,2.43,0,0,0-2,1.2c-.9,1.1,2.8,6.6-15.7,31.4,0,.05-.06.1-.1.15-5.18,6.63-10.44,11.69-13.9,11.75-1.1,0-1.4-.3-1.4-1.9,0-6.3,8.9-24.2,16.5-32.1,0-3.4-3.3-4.5-6.2-4.5h-.6c-2.4.1-3.9,2.3-4.6,3.1-1.7-2.8-5.2-8.3-12.3-8.3-12.14,0-22.94,15.31-26.79,28.77-5.21,7.52-11.27,14.88-16.11,14.83-.5,0-.8-.3-.8-.9.1-5,16.5-27.5,16.6-33.4-.1-5.2-4.2-8.5-7.6-8.7h-.4c-7.1,0-24.9,15.2-37,32.4,2.2-8.1,11.5-24.1,19-29,.8-.8.3-4.9-6.3-4.9h-1.1c-7.8.5-22.7,27.4-23.8,42v.4a8.24,8.24,0,0,0,8.1,8h.5c1.1-.2,1-3.2,2.5-6.4,6.7-14.3,29.8-35.8,33.9-35.9a.53.53,0,0,1,.6.6c-.1,3.1-12.9,18.7-14.3,32.2v.9c-.1,5,3.5,8.7,6.7,8.7,5.54-.09,12.3-6.65,18.14-14-.09.93-.14,1.84-.14,2.71,0,6.6,2.6,11.5,8.7,11.5,8.7,0,17.3-13.2,18.9-15a19.48,19.48,0,0,0-.9,5.8c0,5.1,2.1,9.3,5.6,9.3,6.7,0,15.48-8.84,22.25-17.68,4.92-5.7,13.59-20,14.55-22.82a.55.55,0,0,1,.6-.4.37.37,0,0,1,.3.1c1.2,1,3.4,3.3,2.3,5.7-5.3,10.8-11.6,20.8-11.4,27.1a8.15,8.15,0,0,0,7.9,7.7c4.32,0,10.07-4.76,15.77-11.89.45,5.75,3.09,9.79,8.63,9.79,8.6,0,16-11.5,17.7-13.3a16.54,16.54,0,0,0-.9,5.7c0,5.1,2.1,9.4,5.6,9.4,5.58,0,12.55-6.23,18.61-13.46,0,.12,0,.24,0,.36,0,7.4,3.5,13.1,12.2,13.1,13.1,0,26.6-13.6,37.2-31.4C882.85,424.2,882.45,423.7,881.75,423.7Zm-18.1-11.9c6.7.3-3.3,19.6-12.2,19.6a5.66,5.66,0,0,1-3.9-1.5C850.05,422,860.45,411.7,863.65,411.8Zm-153,40.6c-1.8,0-2.6-1.6-2.6-4.1,0-9.7,13-34.8,22.8-34.9h.1c4.1,0,5.6,4.3,6.1,5.1a42.16,42.16,0,0,0-2.5,4.8C727.85,435.3,717.25,452.4,710.65,452.4Zm84.6-2.3c-1.9,0-2.7-1.6-2.7-4.2,0-9.7,11.8-33,21.6-33.2h.1c3.5,0,4.8,2.8,5.5,4.2a.91.91,0,0,1,.3.5l-2.6,4.7C812.85,428.3,801.75,450.1,795.25,450.1Z" transform="translate(-255.86 -369.59)"/></g></g></svg>