<svg id="Main" xmlns="http://www.w3.org/2000/svg" xmlns:xlink="http://www.w3.org/1999/xlink" viewBox="0 0 630.92 151.63"><defs><style>.cls-1,.cls-2,.cls-3,.cls-4,.cls-5,.cls-6{fill:#ff0;stroke-miterlimit:10;}.cls-1,.cls-2,.cls-3,.cls-4,.cls-5{stroke-width:2px;}.cls-1{stroke:url(#Dégradé_sans_nom_76);}.cls-2{stroke:url(#Dégradé_sans_nom_76-2);}.cls-3{stroke:url(#Dégradé_sans_nom_76-3);}.cls-4{stroke:url(#Dégradé_sans_nom_76-4);}.cls-5{stroke:url(#Dégradé_sans_nom_76-5);}.cls-6{stroke-width:1.3px;stroke:url(#Dégradé_sans_nom_76-6);}</style><linearGradient id="Dégradé_sans_nom_76" x1="250.6" y1="572.18" x2="360.2" y2="572.18" gradientUnits="userSpaceOnUse"><stop offset="0" stop-color="#c1165a"/><stop offset="1" stop-color="#ff7300"/></linearGradient><linearGradient id="Dégradé_sans_nom_76-2" x1="339.39" y1="595.09" x2="441.97" y2="595.09" xlink:href="#Dégradé_sans_nom_76"/><linearGradient id="Dégradé_sans_nom_76-3" x1="610.39" y1="554.01" x2="629.3" y2="554.01" xlink:href="#Dégradé_sans_nom_76"/><linearGradient id="Dégradé_sans_nom_76-4" x1="685.28" y1="554.01" x2="704.19" y2="554.01" xlink:href="#Dégradé_sans_nom_76"/><linearGradient id="Dégradé_sans_nom_76-5" x1="458.83" y1="566.49" x2="881.53" y2="566.49" xlink:href="#Dégradé_sans_nom_76"/><linearGradient id="Dégradé_sans_nom_76-6" x1="729.35" y1="537.17" x2="752.89" y2="537.17" xlink:href="#Dégradé_sans_nom_76"/></defs><title>laitiere</title><g id="header"><g id="Laitière"><path class="cls-1" d="M320.8,625.5c21.17,0,13.43,15,9.64,20.7a1.94,1.94,0,0,1-1.59.79,2.61,2.61,0,0,1-1.42-.47c-1.89-1.9-6-4.58-14.38-5.06-1.1,0-2.21-.16-3.31-.16-13.28,0-31,4.74-44.24,4.74-13.91-.15-15.65-15.16-12.65-15.16H253c3.48,0,4.27,4.58,13,5.21C257.75,614.6,311.79,527.38,338.49,507c-40.13,9.48-57,48.19-62.25,67-.32.79-.79,1.27-1.42,1.27-3.64,0-10.9-17.54-6.32-25.91,20.7-39.35,64.15-52,82.32-52,5.37,0,8.53,1.11,8.37,2.85l-.16.47C332.17,517.59,294.41,596.12,284.3,634,293.78,631.67,308.31,625.5,320.8,625.5Z" transform="translate(-250.6 -496.36)"/><path class="cls-2" d="M440.88,582.21a5.73,5.73,0,0,1-.32,3.16c-7.9,14.85-32.55,49.14-49.14,49.14-5.53,0-8.85-6.64-8.85-14.69a30.71,30.71,0,0,1,1.43-9.17c-2.53,2.85-16.12,23.7-29.87,23.7-9.64,0-13.74-7.74-13.74-18.17,0-22.59,20.69-60.51,44.71-60.51,11.22,0,16.75,8.69,19.44,13.11,1.1-1.26,3.47-4.74,7.26-4.9h.95c4.58,0,9.8,1.74,9.8,7.11-12,12.49-26.07,40.77-26.07,50.72,0,2.53.47,3,2.21,3,9.32-.15,26.86-23.22,38.08-42.5.63-1.26,1.26-2.05,1.9-2.05C439.61,580.16,440.25,581,440.88,582.21ZM391.58,565h-.16c-15.48.16-36,39.82-36,55.14,0,4,1.26,6.48,4.1,6.48,10.43,0,27.18-27,37.77-46a65,65,0,0,1,4-7.58C400.43,571.78,398.06,565,391.58,565Z" transform="translate(-250.6 -496.36)"/><path class="cls-3" d="M621.63,559.93c2.84,0,5.37-.95,6.32-3.32,1.89-5.05-4.11-8.53-9.48-8.53-2.85,0-5.53.95-6.64,3.32C609.62,556.14,616.25,559.93,621.63,559.93Z" transform="translate(-250.6 -496.36)"/><path class="cls-4" d="M686.72,551.4c-2.21,4.74,4.42,8.53,9.8,8.53,2.84,0,5.37-.95,6.31-3.32,1.9-5.05-4.1-8.53-9.47-8.53C690.51,548.08,687.83,549,686.72,551.4Z" transform="translate(-250.6 -496.36)"/><path class="cls-5" d="M879.32,581.26a3.8,3.8,0,0,0-2.69,1.43c-15.8,21-31.44,43.13-49.3,43.13-6.79,0-9.48-4.27-9.48-10.59a34.14,34.14,0,0,1,2.53-12.16,19.67,19.67,0,0,0,8.85,2c16,0,32.08-18.64,32.08-34.76,0-11.22-5.85-16-15.65-16-19.26,0-38.39,26.86-42.81,49.34C794.43,615,784.58,626,778.36,625.82c-7.11-.32,15.48-34.44,17.22-48,.16-1.58.79-8.22-4.74-11.54-10-6.16-8.85-10.27-12.48-11.53a6.9,6.9,0,0,0-1.58-.32,3.83,3.83,0,0,0-3.16,1.9c-1.42,1.74,4.42,10.43-24.81,49.61l-.17.24c-9.85,11.31-20,19.67-30.95,19.67-6.8,0-9.48-4.27-9.48-10.59a34.32,34.32,0,0,1,2.52-12.16,19.67,19.67,0,0,0,8.85,2c16,0,32.08-18.64,32.08-34.76,0-11.22-5.85-16-15.65-16-19.06,0-38,26.31-42.66,48.65-8.79,11.47-17.86,20.52-22.91,20.72-1.73,0-2.52-.48-2.52-2.69,0-10.11,14.22-38.55,26.07-51,.16-.15.16-.47.16-.79,0-2.68-3.16-6.16-10.75-6.16-4.8,0-14.56,14.47-21.48,30.33-10.54,16-23.6,31.36-30.18,31.61-1.43,0-1.9-1.11-1.9-3.32,0-10.9,17.7-49.61,35.71-80a41.08,41.08,0,0,1,4.27-.31,36.84,36.84,0,0,1,18.8,5.21c-.32-7.27-1.74-13.9-10-14.85a32.36,32.36,0,0,0-6.63-.48c9.16-14.22,16.59-23.22,24.49-29.07.47-.47.79-.79.79-1.26,0-1.43-3.79-2.37-8.53-2.37-5.38,0-12.17,1.26-16.28,4.26-4,4.74-10.58,14.86-19.91,31-3,.16-5.84.32-8.21.32-20.39,0-22.75-5.22-23.23-5.22s-.63.95-.63,1.27c0,0,2.68,14.53,18,14.53h1.26c2.85-.15,5.06-.31,7.12-.47-9.44,17.34-19.64,38.12-25.75,55.14-9.58,13.13-20,24.12-25.6,24.34-1.74,0-2.53-.48-2.53-2.69,0-10.11,14.22-38.55,26.07-51,.16-.15.16-.47.16-.79,0-2.68-3.16-6.16-10.75-6.16-4.92,0-15,15.21-22,31.53-10.45,15.55-22.93,30-30.29,30.09-1.74,0-2.22-.47-2.22-3,0-10,14.07-38.23,26.07-50.72,0-5.37-5.21-7.11-9.79-7.11h-.95c-3.79.16-6.16,3.64-7.27,4.9-2.68-4.42-8.21-13.11-19.43-13.11-19.38,0-36.59,24.68-42.52,46.08-9.09,12.42-18.73,22.71-24.32,23.12-1.42,0-1.89-1.26-1.89-3.32,0-17.53,44.55-100.49,66.83-119.61a1.61,1.61,0,0,0,.79-1.1c0-1.42-3.79-2.37-8.69-2.37-5.37,0-12,1.26-16.11,4.26-11.22,13.28-56.89,91-56.89,120.09,0,6.95,2.53,11.06,8.54,11.06,9.58.08,20.39-9.37,29.65-20.5-.06,1-.11,1.89-.11,2.8,0,10.43,4.11,18.17,13.75,18.17,13.74,0,27.33-20.85,29.86-23.7a30.7,30.7,0,0,0-1.42,9.17c0,8,3.32,14.69,8.85,14.69,9.6,0,21.89-11.48,32.08-24a49.18,49.18,0,0,0-1.75,11.86c0,6.64,2.53,11.22,8.69,11.38h.16c8.82,0,19.68-10,29.1-21.58a48,48,0,0,0-1.61,11c0,6.8,2.53,10.91,8.69,10.91,10.33,0,21.78-10.54,31.33-22.46a47.85,47.85,0,0,0-1.47,10.76c0,6.64,2.53,11.22,8.69,11.38H663c8.86,0,19.8-10.12,29.25-21.77,0,.3,0,.61,0,.91,0,11.7,5.53,20.7,19.27,20.7,14.35,0,29-10.32,42.21-26a85.43,85.43,0,0,0,6-7.61c3.69-5,7.23-10.35,10.59-16a5.07,5.07,0,0,0,.35-.7c3.55-5.84,6.29-10.85,6.92-12.73a.86.86,0,0,1,.95-.63.6.6,0,0,1,.47.15c1.9,1.58,5.37,5.22,3.63,9-8.37,17.07-18.33,32.87-18,42.82.16,7,6.48,12.17,12.48,12.17,6.83,0,15.9-7.51,24.9-18.75.73,10.49,6.41,18.27,19.18,18.27,20.7,0,42-21.49,58.78-49.61C881.06,582.05,880.42,581.26,879.32,581.26Zm-28.6-18.8c10.59.47-5.21,31-19.28,31a8.94,8.94,0,0,1-6.16-2.37C829.23,578.58,845.66,562.3,850.72,562.46Zm-109.65,0c10.59.47-5.21,31-19.28,31a8.94,8.94,0,0,1-6.16-2.37C719.58,578.58,736,562.3,741.07,562.46ZM517,626.61c-2.84,0-4.11-2.53-4.11-6.48,0-15.32,20.54-55,36-55.14h.16c6.47,0,8.84,6.79,9.63,8.06a68.17,68.17,0,0,0-4,7.58C544.21,599.59,527.46,626.61,517,626.61Z" transform="translate(-250.6 -496.36)"/><path class="cls-6" d="M736.67,527.46s-10.42-2-5.21,9.12S751,547,751,547,736.67,536.58,736.67,527.46Z" transform="translate(-250.6 -496.36)"/></g></g></svg>