<svg xmlns="http://www.w3.org/2000/svg" xmlns:xlink="http://www.w3.org/1999/xlink" viewBox="0 0 681.02 408.08"><defs><style>.cls-1{isolation:isolate;}.cls-2,.cls-4,.cls-5,.cls-6,.cls-7,.cls-8{fill:#ff0;stroke-miterlimit:10;stroke-width:0.97px;}.cls-2{stroke:url(#Dégradé_sans_nom_20);}.cls-3{fill:url(#Dégradé_sans_nom_20-2);}.cls-4{stroke:url(#Dégradé_sans_nom_20-3);}.cls-5{stroke:url(#Dégradé_sans_nom_20-4);}.cls-6{stroke:url(#Dégradé_sans_nom_20-5);}.cls-7{stroke:url(#Dégradé_sans_nom_20-6);}.cls-8{stroke:url(#Dégradé_sans_nom_20-7);}.cls-9{fill:#f68e37;}.cls-10{fill:#f1bc03;}.cls-11{fill:#faf8a8;}.cls-12{fill:#dc3645;}.cls-13{fill:#ef4c65;}.cls-14{fill:#be292c;}.cls-15{fill:#fff;}.cls-16{fill:#182632;}.cls-17{fill:#e1e1e1;}.cls-18{fill:#33c8cb;}.cls-19{opacity:0.1;}.cls-20{fill:#00eeed;}.cls-21{opacity:0.2;}.cls-22{fill:#f2d9a2;}.cls-23{fill:#ff8c78;}.cls-24{fill:#ba5d54;opacity:0.42;}.cls-24,.cls-29{mix-blend-mode:multiply;}.cls-25{fill:#ffcd50;}.cls-26{fill:#fcf09d;}.cls-27{fill:#c9a84e;}.cls-28,.cls-29{fill:#ffdf4d;}.cls-30{fill:#77d2dc;}.cls-31{fill:#d84444;}.cls-32{fill:#ffc;}</style><linearGradient id="Dégradé_sans_nom_20" x1="435.78" y1="363.48" x2="757.34" y2="363.48" gradientUnits="userSpaceOnUse"><stop offset="0" stop-color="#c1165a"/><stop offset="1" stop-color="#ff7300"/></linearGradient><linearGradient id="Dégradé_sans_nom_20-2" x1="224.98" y1="303.06" x2="771.29" y2="303.06" xlink:href="#Dégradé_sans_nom_20"/><linearGradient id="Dégradé_sans_nom_20-3" x1="558.31" y1="173.91" x2="581.24" y2="173.91" xlink:href="#Dégradé_sans_nom_20"/><linearGradient id="Dégradé_sans_nom_20-4" x1="313.81" y1="210.54" x2="486.59" y2="210.54" xlink:href="#Dégradé_sans_nom_20"/><linearGradient id="Dégradé_sans_nom_20-5" x1="398.87" y1="245.85" x2="415.22" y2="245.85" xlink:href="#Dégradé_sans_nom_20"/><linearGradient id="Dégradé_sans_nom_20-6" x1="369.68" y1="250.03" x2="669.25" y2="250.03" xlink:href="#Dégradé_sans_nom_20"/><linearGradient id="Dégradé_sans_nom_20-7" x1="623.53" y1="249.29" x2="835.65" y2="249.29" xlink:href="#Dégradé_sans_nom_20"/></defs><title>logo</title><g class="cls-1"><g id="Logo"><path class="cls-2" d="M755.85,366.29a3.16,3.16,0,0,0-2.23,1.18c-13.1,17.43-26.07,35.77-40.88,35.77-5.63,0-7.86-3.54-7.86-8.78a28.2,28.2,0,0,1,2.1-10.09,16.21,16.21,0,0,0,7.33,1.71c13.24,0,26.6-15.46,26.6-28.83,0-9.3-4.85-13.23-13-13.23-13.35,0-26.62,15.56-32.76,31.56a6.34,6.34,0,0,0-.35.54c-9,16-24.24,35.77-31.05,36-1.18,0-1.57-.92-1.57-2.76,0-9,14.67-41.14,29.61-66.29a35,35,0,0,1,3.54-.26A30.6,30.6,0,0,1,711,347.17c-.26-6-1.44-11.53-8.26-12.32a27.37,27.37,0,0,0-5.5-.39c7.6-11.79,13.76-19.26,20.31-24.11.39-.39.65-.65.65-1.05,0-1.18-3.14-2-7.07-2-4.46,0-10.09,1.05-13.5,3.54-3.27,3.93-8.78,12.31-16.51,25.68-2.49.13-4.84.26-6.81.26-16.9,0-18.87-4.33-19.26-4.33s-.52.79-.52,1.05c0,0,2.22,12.06,14.93,12.06h1.05c2.36-.13,4.19-.27,5.9-.4-4.59,8.43-9.39,17.85-13.61,27-9.94,17.26-23.77,34.12-31.69,34.64h-.13c-1.58,0-2.49-1.18-2.23-3.41,3-20.7,20.31-44.94,24.11-48.22.26-2.75-3.28-4.19-7.73-4.19h-1.57c-.92,0-11.14,1.7-22.67,33.41-8.39,12.84-17.43,24.37-23.45,24.37-3.15,0-3-3.67-3-5.76.13-16.25,21.1-43.9,25.81-47.17a.71.71,0,0,0,.4-.66c-.4-2.09-2.89-4.19-7.6-4.19-.53,0-1.05.13-1.71.13-6.43.68-14.31,11-20.09,23.14a5.6,5.6,0,0,0-.85,1.31c-9.3,16-23.84,35.11-31.57,35.24-1.44,0-1.84-.39-1.84-2.49,0-8.25,11.66-31.71,21.62-42.06,0-4.45-4.32-5.89-8.12-5.89h-.79c-3.14.13-5.11,3-6,4.06-2.22-3.67-6.81-10.87-16.11-10.87-7.76,0-15.1,4.78-21.18,11.72h0c-3.15-.13-22.8,40.36-35.77,40.23-.66,0-1.05-.4-1.05-1.18.13-6.56,21.62-36,21.75-43.77-.13-6.81-5.5-11.13-10-11.39h-.52c-9.3,0-32.62,19.91-48.48,42.45,2.88-10.62,15.07-31.58,24.9-38,1-1.05.39-6.42-8.26-6.42h-1.44c-10.22.66-29.74,35.9-31.18,55v.52c-.13,3.8,3.4,10.49,10.61,10.49h.65c1.45-.27,1.32-4.2,3.28-8.39,8.78-18.74,39-46.91,44.42-47a.7.7,0,0,1,.78.79c-.13,4.06-16.9,24.5-18.73,42.19V402c-.13,6.55,4.58,11.4,8.78,11.4,8-.13,18-10.6,26.11-21.39a45.53,45.53,0,0,0-1.76,11.76c0,8.64,3.41,15.06,11.4,15.06,11.4,0,22.67-17.29,24.76-19.65a25.4,25.4,0,0,0-1.18,7.6c0,6.68,2.75,12.18,7.34,12.18,9.76,0,22.89-14.31,32-27-3.1,12.5-2.19,23,6.6,23,9.17,0,19.13-10.09,26.2-19.65-2.36,11-1.31,19.78,6.68,19.78,10.22,0,21.4-10.95,30.14-22.39-2.46,7.11-4,13.34-4,17.84,0,5.64,2.09,9,7.2,9,11.81,0,25.37-16.57,34.15-29.9-.07.94-.12,1.87-.12,2.78,0,9.69,4.58,17.16,16,17.16,17.16,0,34.85-17.82,48.74-41.14C757.29,367,756.76,366.29,755.85,366.29ZM732.13,350.7c8.78.39-4.32,25.68-16,25.68a7.4,7.4,0,0,1-5.11-2C714.31,364.07,727.94,350.57,732.13,350.7ZM526.26,412.45c-2.36,0-3.4-2.09-3.4-5.37,0-12.71,17-45.59,29.87-45.72h.13c5.37,0,7.34,5.63,8,6.68a53.33,53.33,0,0,0-3.27,6.29C548.8,390.05,534.91,412.45,526.26,412.45Z" transform="translate(-224.98 -81.39)"/><g id="trainée"><path class="cls-3" d="M629.31,122.23a1.94,1.94,0,0,1-.82.15h-.91l-1.13,0-2.23-.07-4.45-.13-8.88-.22q-8.89-.19-17.78-.2-17.76,0-35.51.62c-23.66.81-47.27,2.49-70.71,5.3a613.25,613.25,0,0,0-69.57,12.19c-22.83,5.49-45.26,12.52-66.53,21.89s-41.42,21-58.46,36.06a150.87,150.87,0,0,0-22.74,24.9A129.78,129.78,0,0,0,253.73,252a138,138,0,0,0-8.1,32.29,150.86,150.86,0,0,0-.63,33.36,119.27,119.27,0,0,0,7.54,31.85,114.9,114.9,0,0,0,16.13,28.26,136.9,136.9,0,0,0,23.23,23.36A184,184,0,0,0,320,419.48c19.9,10.68,41.56,18.49,63.74,24.46a514.6,514.6,0,0,0,68,13c11.46,1.49,23,2.52,34.49,3.33,2.87.2,5.74.37,8.58.51l8.82.37c5.49.23,11.19.21,16.87.16,45.61-.91,91.64-9.11,134.43-26A321.91,321.91,0,0,0,686.29,421a293.72,293.72,0,0,0,29.77-17.81,310.9,310.9,0,0,0,53.07-45.92l2.16,1.65c-3.2,5.06-6.56,10-10.15,14.87l-2.71,3.61-2.81,3.54c-1.85,2.39-3.82,4.67-5.76,7s-4,4.51-6.05,6.76-4.15,4.43-6.32,6.54-4.3,4.29-6.52,6.36-4.5,4.09-6.77,6.11c-4.62,4-9.33,7.85-14.2,11.52s-9.83,7.26-14.94,10.62-10.32,6.56-15.63,9.62-10.73,5.91-16.23,8.62A336.88,336.88,0,0,1,594.09,479a366.79,366.79,0,0,1-72.9,10.28c-6.19.27-12.36.28-18.73.06l-9-.35c-3.09-.13-6.15-.3-9.2-.5-12.21-.78-24.29-2.18-36.35-3.86a467.64,467.64,0,0,1-71.4-15.82c-23.39-7.23-46.4-16.46-68-29a218.73,218.73,0,0,1-30.82-21.52,161.48,161.48,0,0,1-26.16-27.71,135.79,135.79,0,0,1-18.24-33.85,139.15,139.15,0,0,1-8-37.43,168.6,168.6,0,0,1,1.6-37.67,153.74,153.74,0,0,1,10.16-36.36,147.37,147.37,0,0,1,19-32.6,167.7,167.7,0,0,1,26-26.81c19.13-15.83,40.95-27.5,63.43-36.53S391.46,134,415,129.24a622.47,622.47,0,0,1,71.08-9.84c23.8-2,47.64-2.83,71.46-2.76q17.87.1,35.7.88,8.91.39,17.82,1l8.9.6,4.44.32,2.21.16,1.1.07.53,0h.23c.12,0,.16-.05-.27.11Z" transform="translate(-224.98 -81.39)"/></g><g id="Texte"><path class="cls-4" d="M580.59,156.38c-3.3,12.06-9.48,27.43-13.5,34l-8,1a203.23,203.23,0,0,0,8.47-33.75Z" transform="translate(-224.98 -81.39)"/><path class="cls-5" d="M387.11,226.6a36.73,36.73,0,0,0,11.44,1.76c33.43,0,86.89-37.17,87.55-77.87.44-41.8-42.68-44.66-56.53-44.66h-4.4c-34.54,0-88.88,25.74-109.56,72.38a17.14,17.14,0,0,0-1.32,6.82c-.22,12.32,8.58,28.59,12.76,28.59a2,2,0,0,0,2-1.54c12.76-54.77,45.32-86,100.54-86,20,0,31.23,5.5,31,21.78-.44,18-34.75,67.31-67.31,67.31a30.17,30.17,0,0,1-17.16-5.28c14.52-29.91,32.56-57.63,51.7-71.27V138c0-1.32-1.32-2-3.3-2-5.72,0-18,5.28-27.94,15-29.7,29-70.4,92.83-77,140.13,0,.44-.22.88-.22,1.54-.22,9,9.24,17.82,17.6,22.22a4.08,4.08,0,0,0,1.54.44,4.46,4.46,0,0,0,4.18-4C344.21,291.94,355.87,253,373,216,375.45,218,378.09,223.52,387.11,226.6Z" transform="translate(-224.98 -81.39)"/><path class="cls-6" d="M399.76,243.48c-2,4.31,4,7.76,8.9,7.76,2.59,0,4.88-.86,5.75-3,1.72-4.59-3.74-7.75-8.62-7.75C403.2,240.47,400.76,241.33,399.76,243.48Z" transform="translate(-224.98 -81.39)"/><path class="cls-7" d="M668.67,176.9c1.43-12.15-14.46-12.68-17.14-12.68h-.72c-31.07,0-80,19.29-105.53,58.93a11.18,11.18,0,0,0-1.5,3.19c-5.89,8-12.61,14.72-19.93,17.94-.57-3.73-3.87-5-8-5-5.74,0-13.07,2.29-17.38,3.87,0,0,35.48-20.82,44.53-40.5,3.16-6.89-4.74-12.21-9.91-12.21h-.72c-13.93,1.44-37.49-1.72-44.38,12.64-2.87,10.2,2.58,14.51,11.92,14.51h2.3c-1.44-15.08,10.91-18.82,19.1-18.82a18.94,18.94,0,0,1,5.6.72c-8.35,18.8-29.08,32.53-38.32,40.3a3.64,3.64,0,0,0-2.19,1.38c-.26.46-.54.92-.82,1.38a8.24,8.24,0,0,0-1.33,1.75c0,.15,0,.29,0,.43-7.1,11.46-15.8,22-25.57,26.32-.57-3.74-3.87-5-8-5-5.74,0-13.07,2.3-17.38,3.88,0,0,35.48-20.83,44.53-40.51,3.16-6.89-4.74-12.2-9.91-12.2h-.72c-13.93,1.43-37.49-1.73-44.38,12.64-2.87,10.19,2.58,14.5,11.92,14.5H437c-1.44-15.08,10.91-18.81,19.1-18.81a19,19,0,0,1,5.6.71c-9.35,21-34.21,35.75-41.11,42.83a4.51,4.51,0,0,0-1.55,1.59C409,288.15,392.29,309,385,309.26c-1.58,0-2.3-.43-2.3-2.44,0-9.19,12.93-35,23.7-46.39.15-.14.15-.43.15-.72,0-2.44-2.88-5.6-9.77-5.6-7.18,0-26.57,35.62-26.57,53.86,0,6,2.3,10.2,7.9,10.34h.14c14.39,0,34.78-29.32,42.8-43.54a13.51,13.51,0,0,0,6.9,2.86h.29a97.2,97.2,0,0,1,11.2-.72c2.73,0,4.45.15,5.46.72-17.67,6.61-32.46,7.9-33.47,16.09-.57,3.3,3.59,6.61,9.19,6.61h1.73c13.35,0,31.74-12.36,35.76-24,13.4-5.28,21.95-14.39,29.78-27.2a12.77,12.77,0,0,0,5.27,1.75h.29a97.2,97.2,0,0,1,11.2-.72c2.73,0,4.45.15,5.46.72-17.67,6.61-32.46,7.9-33.47,16.09-.57,3.3,3.59,6.6,9.19,6.6h1.73c13.35,0,31.74-12.35,35.76-24a52.4,52.4,0,0,0,19.8-13.66c.78,8.28,4.72,16.14,7.73,16.14a2.26,2.26,0,0,0,1.79-1.25c7.86-21.07,33.21-68.75,81.43-72.68-84.82,109.29-126.61,127.5-147.51,127.5a33.09,33.09,0,0,1-11.78-2.14c-.18,0-.54-.18-.72-.18-5.89,0-3.57,32,20.54,32.5,30.89.54,59.82-33.75,88.4-71.25h23.57c-9.47,18.93-18,37.68-22,49.82-5.35,14.11,12.5,21.43,20.54,21.43,1.61,0,2.86-.36,3.39-1.07C598,287.79,667.78,185.47,668.67,176.9ZM417.71,294c-1.29,0-1.72-.43-1-1.44,2.15-3.16,11.49-5,25.13-9.34C438.11,287.4,422.31,294,417.71,294Zm65.21-26.75c-1.29,0-1.72-.43-1-1.43,2.15-3.16,11.49-5,25.13-9.34C503.32,260.66,487.52,267.26,482.92,267.26Zm113.61-20.72c15.35-20.71,30.89-41.25,50.53-59.46l-3.75,7s-13.39,24.47-27.85,52.5Z" transform="translate(-224.98 -81.39)"/><path class="cls-8" d="M834.14,243.45a.79.79,0,0,0-.72.29c-1.15,1.15-16.09,24.85-26.72,27.58,13.94-21.83,18.82-49.84-2.58-52.14-.72,0-1.29-.14-2-.14-19.06,0-39.58,27.71-42,48.69-7.51,9.94-16.14,19.4-21.64,19.25-6.46-.29,14.07-31.32,15.65-43.67.15-1.43.72-7.47-4.3-10.48-9.05-5.6-8.05-9.34-11.35-10.49a6.56,6.56,0,0,0-1.44-.28,2.57,2.57,0,0,0-.4.05c-.64-5.23-2.58-9.52-8.79-10.24a29.82,29.82,0,0,0-6-.43c8.33-12.93,15.08-21.11,22.26-26.43.43-.43.72-.72.72-1.15,0-1.29-3.45-2.15-7.76-2.15-4.88,0-11.06,1.15-14.79,3.88-3.59,4.3-9.62,13.5-18.1,28.15-2.73.14-5.31.28-7.47.28-18.52,0-20.68-4.74-21.11-4.74s-.57.87-.57,1.15c0,0,2.44,13.22,16.37,13.22h1.15c2.58-.15,4.59-.29,6.46-.43-3.27,6-6.64,12.48-9.87,19a26.87,26.87,0,0,0-2.77-.22c-5,0-6.61,4.31-8.62,6.47v.14c-1.29-1.29-1.58-6.18-10.05-6.32-5.75,0-9,2.44-11.78,7.47-9.62,10.77-24.13,32.89-27.86,38.49a4.06,4.06,0,0,0,.14-1.29.87.87,0,0,0-.86-1.15,1.53,1.53,0,0,0-1.29.86c-4.89,7.76-1.3,30.16,15.65,30.16,34,.15,10.92-64.63,27.72-64.05,5.17.28-1.43,14.22,6.47,14.65,1.63.08,2.76-4.86,6.48-10.78-6.79,15.28-11.8,29.6-11.8,38.2,0,6.17,2.3,9.91,7.9,9.91,14.89,0,32.32-24.05,41.4-39.05,7.13-9.48,16.73-25.46,17.92-29a.78.78,0,0,1,.86-.58.52.52,0,0,1,.43.14c1.73,1.44,4.89,4.74,3.31,8.19C734.75,260,725.7,274.34,726,283.38c.15,6.32,5.89,11.06,11.35,11.06,6.31,0,14.74-7.06,23-17.57a16,16,0,0,0,12.14,13,19.76,19.76,0,0,0,5.75.87c6.46,0,13.35-3.16,22.26-11.06,17.09-2.3,28-20.69,34.61-35C835.29,244.31,834.71,243.45,834.14,243.45Zm-196.2,61.07c-5.32,0-7.9-3.3-9.19-8,3.87-6.32,16.23-26.14,23.55-35.48C648.71,279.24,650,304.23,637.94,304.52Zm47.25-7.91c-1.29,0-1.72-1-1.72-3,0-9.91,16.09-45.1,32.46-72.67a36.26,36.26,0,0,1,3.88-.29,33.25,33.25,0,0,1,14.3,3.25c-.89,1.54,2.34,7.84-13.07,31.55-.6.12-1.2.59-1.81,1.68-1.39,2.46-2.92,5-4.53,7.57-1,1.36-2,2.75-3.08,4.2a2.68,2.68,0,0,0-.6,1.4C701.75,283.93,690.84,296.39,685.19,296.61Zm108.44-25.44a4.58,4.58,0,0,0-4.3-3.3,6.16,6.16,0,0,0-5.89,6.18,5,5,0,0,0,2.73,4.59,8,8,0,0,1-5.75,2.87,4.06,4.06,0,0,1-1.29-.14c-17-4.6,13.64-54,27.14-54a5.24,5.24,0,0,1,1.44.28C815.18,230.1,803.83,262.84,793.63,271.17Z" transform="translate(-224.98 -81.39)"/></g><g id="Objets"><path class="cls-9" d="M764.44,390.17c-13.13,4.34-22,5.59-46.38,20.7l-.16.1.11-.16c17.45-22.8,19.57-31.46,25.19-44.09s20.88-18.9,20.88-18.9l11.48,10.91,0,0,9.71,12.5S777.62,385.82,764.44,390.17Z" transform="translate(-224.98 -81.39)"/><path class="cls-10" d="M736.85,393.81a143.71,143.71,0,0,0,9.23-18.95c.8-1.9,1.63-3.87,2.53-5.9,3-6.66,13.27-14.34,17.43-16.71l7.2,7.95,7.39,8.18c-2.75,3.89-10.94,13.9-17.89,16.19-2.1.7-4.14,1.33-6.12,1.94A143.2,143.2,0,0,0,736.85,393.81Z" transform="translate(-224.98 -81.39)"/><path class="cls-11" d="M747.62,384.06c1.56-2.94,2.93-5.72,4.29-8.45v0c1-2.1,2.11-4.26,3.25-6.47,2.15-4.15,8.65-9.94,13.7-13.73l9,9.95c-4.48,5.19-10.56,11.09-14.62,12.7-2.32.92-4.58,1.77-6.77,2.6h0C753.6,381.71,750.7,382.8,747.62,384.06Z" transform="translate(-224.98 -81.39)"/><path class="cls-12" d="M780.72,314.73a24.4,24.4,0,0,0-9.14.52c-15.58,3.59-32.25,18.88-32.25,18.88h0c-.19-.38-8-16.19,4-35.24,6.32-10,16.19-15.51,24.24-18.51a3.23,3.23,0,0,1,3.62.86,3.47,3.47,0,0,1,.91,2.49A3.22,3.22,0,0,1,771,286l23-5.28,17.23-4h0C801.93,295.44,780.72,314.73,780.72,314.73Z" transform="translate(-224.98 -81.39)"/><path class="cls-13" d="M739.32,334.13c-.19-.38-8-16.19,4-35.24,6.32-10,16.19-15.51,24.24-18.51a3.23,3.23,0,0,1,3.62.86,3.47,3.47,0,0,1,.91,2.49c-.34.74-.71,1.5-1.12,2.28,0,0-17.08,7.57-25.61,23.19C737,324.57,739.25,333.84,739.32,334.13Z" transform="translate(-224.98 -81.39)"/><path class="cls-14" d="M780.72,314.73a24.4,24.4,0,0,0-9.14.52c4.73-13.47,14.07-25.6,22.46-34.52l17.23-4h0C801.93,295.44,780.72,314.73,780.72,314.73Z" transform="translate(-224.98 -81.39)"/><path class="cls-12" d="M819.89,358a24.23,24.23,0,0,1-1.42,9.06c-5.12,15.13-22,30.21-22,30.21h0c.36.23,15.32,9.55,35.46-.53,10.57-5.29,17-14.56,20.83-22.28a3.22,3.22,0,0,0-.5-3.69,3.49,3.49,0,0,0-2.39-1.15,3.22,3.22,0,0,0-2.37.89L855,348.13l5.65-16.75h0C841.2,338.82,819.89,358,819.89,358Z" transform="translate(-224.98 -81.39)"/><path class="cls-13" d="M796.48,397.27c.36.23,15.32,9.55,35.46-.53,10.57-5.29,17-14.56,20.83-22.28a3.22,3.22,0,0,0-.5-3.69,3.49,3.49,0,0,0-2.39-1.15c-.76.27-1.55.57-2.37.89,0,0-9.23,16.25-25.62,23.18C805.77,400.52,796.76,397.37,796.48,397.27Z" transform="translate(-224.98 -81.39)"/><path class="cls-14" d="M819.89,358a24.23,24.23,0,0,1-1.42,9.06c13.87-3.38,26.86-11.47,36.57-18.93l5.65-16.75h0C841.2,338.82,819.89,358,819.89,358Z" transform="translate(-224.98 -81.39)"/><path class="cls-15" d="M858.89,332.77a174.11,174.11,0,0,1-14.41,12.05,103.7,103.7,0,0,1-15.74,9.36l-.61.28-10.43,4.29-11.52,4.74-21.91,9-21.63-23.89,1.26-2.38,9.89-18.54,5.86-11a140.35,140.35,0,0,1,28.93-37.48l1-.93c16.27-14.72,32.23-23.86,46.35-29.5,1-.4,2-.79,3-1.15q3.55-1.32,6.93-2.36c1-.3,1.92-.58,2.86-.85l1.43-.4a118.8,118.8,0,0,1,16.39-3.25,97.46,97.46,0,0,1,13.55-.77,5.82,5.82,0,0,1,5.9,6.51,109.14,109.14,0,0,1-7,29.39c-.19.51-.39,1-.59,1.52-.36.91-.74,1.83-1.13,2.75-.92,2.16-1.93,4.38-3,6.64-.45.92-.91,1.85-1.4,2.78C885.83,303.09,875.15,318.06,858.89,332.77Z" transform="translate(-224.98 -81.39)"/><path class="cls-16" d="M795.72,367.79l-11.45,4.72c-1.22-.77-2.39-1.58-3.53-2.4-1-.7-1.91-1.42-2.82-2.17a57.45,57.45,0,0,1-8.68-8.68,52,52,0,0,1-6.6-10.64l5.83-10.94a81,81,0,0,0,8.6,13.23,79.1,79.1,0,0,0,13.12,12.93c.82.63,1.65,1.26,2.5,1.87S794.69,367.12,795.72,367.79Z" transform="translate(-224.98 -81.39)"/><path class="cls-17" d="M769.24,359.26a52,52,0,0,1-6.6-10.64l5.83-10.94,5.32-10,5.86-11a140.35,140.35,0,0,1,28.93-37.48l1-.93c22-19.92,43.47-29.62,60.55-34.26a118.8,118.8,0,0,1,16.39-3.25c.51,4.3,2.28,4.88-3.42,11.64,0,0-48.54,10.2-74.09,42.39-23.41,29.5-9.56,32.22-9.56,32.22l-22.39,23.87Z" transform="translate(-224.98 -81.39)"/><path class="cls-12" d="M762.93,372.47a1.9,1.9,0,0,1-2.38-2.62C775,341,816.83,313.55,834.29,303a1.9,1.9,0,0,1,2.5,2.76C824.53,322.07,793,360.92,762.93,372.47Z" transform="translate(-224.98 -81.39)"/><path class="cls-14" d="M836.68,303.33,760.84,372a1.87,1.87,0,0,1-.29-2.12C775,341,816.83,313.55,834.29,303A1.85,1.85,0,0,1,836.68,303.33Z" transform="translate(-224.98 -81.39)"/><path class="cls-16" d="M868.75,298.63A18,18,0,1,1,870,273.15,18,18,0,0,1,868.75,298.63Z" transform="translate(-224.98 -81.39)"/><path class="cls-18" d="M866.22,295.84l-.14.12a14.27,14.27,0,0,1-19.88-1,.86.86,0,0,1-.13-.14,14.12,14.12,0,0,1-3.68-9.85,14.26,14.26,0,0,1,27.75-4.34,14.29,14.29,0,0,1-3.92,15.2Z" transform="translate(-224.98 -81.39)"/><path class="cls-19" d="M868.73,292.84a14.27,14.27,0,0,0-21.66-18.16c-.29.26-.57.54-.83.82a14.28,14.28,0,0,1,19.24,1.76A14.27,14.27,0,0,1,869.12,288a14.14,14.14,0,0,1-3.81,8.62c.26-.2.52-.41.77-.63l.14-.12A14.25,14.25,0,0,0,868.73,292.84Z" transform="translate(-224.98 -81.39)"/><path class="cls-20" d="M866.62,282.3s-.43,8.14-6.52,11.3c-6.66,3.46-11.7-.29-14.72-6.4,0,0-.13,6.64,7.35,9.82C860.54,300.34,869,292.47,866.62,282.3Z" transform="translate(-224.98 -81.39)"/><path class="cls-12" d="M899,275.92A124.43,124.43,0,0,1,870.14,244a108.62,108.62,0,0,1,29.94-4,5.85,5.85,0,0,1,5,2.74,6.2,6.2,0,0,1,.85,3.77A109.14,109.14,0,0,1,899,275.92Z" transform="translate(-224.98 -81.39)"/><path class="cls-13" d="M902.61,253.79c.21-1.18.47-2,.85-3.82.6-2.86.17-4.11-1.79-4.25-3.57-.26-8.6,14-5,19.82C899.37,270,901.71,259,902.61,253.79Z" transform="translate(-224.98 -81.39)"/><path class="cls-21" d="M899,275.92A124.43,124.43,0,0,1,870.14,244a108.62,108.62,0,0,1,29.94-4,5.85,5.85,0,0,1,5,2.74c-1.25-.14-10.25-.94-15.67,4C883.62,252,885.33,264.16,899,275.92Z" transform="translate(-224.98 -81.39)"/><path class="cls-22" d="M367.6,357a33.52,33.52,0,0,0-4.12-13.44l-.58-.1c-13.88-2.16-28.15,3-42,.74a52.94,52.94,0,0,1-13.76-4.49,34,34,0,0,0-3.78,6.38,33.65,33.65,0,0,0-2.7,9.49q33.44,4.09,66.65,9.76a34.06,34.06,0,0,0,.43-5.38C367.73,359,367.69,358,367.6,357Z" transform="translate(-224.98 -81.39)"/><path class="cls-23" d="M359.29,337.69a33.66,33.66,0,0,0-52.16,2.05,52.94,52.94,0,0,0,13.76,4.49c13.86,2.28,28.13-2.9,42-.74l.58.1A33.69,33.69,0,0,0,359.29,337.69Z" transform="translate(-224.98 -81.39)"/><path class="cls-23" d="M300.65,355.61a35,35,0,0,0-.28,4.38,33.64,33.64,0,0,0,8.74,22.63,117.59,117.59,0,0,1,44.79,4.58,34,34,0,0,0,8.61-9.19,33.56,33.56,0,0,0,4.79-12.64Q334.11,359.7,300.65,355.61Z" transform="translate(-224.98 -81.39)"/><path class="cls-22" d="M309.11,382.62a33.85,33.85,0,0,0,8.85,7c4.82,3.08,9.94,4,16.09,4.09a32.88,32.88,0,0,0,9.41-1.34,33.66,33.66,0,0,0,10.44-5.13A117.59,117.59,0,0,0,309.11,382.62Z" transform="translate(-224.98 -81.39)"/><path class="cls-24" d="M322.93,348.07a33.91,33.91,0,0,1,7.72-21.59,33.56,33.56,0,0,0-23.52,13.26,34,34,0,0,0-3.78,6.38,33.65,33.65,0,0,0-2.7,9.49,35,35,0,0,0-.28,4.38,33.64,33.64,0,0,0,8.74,22.63,33.85,33.85,0,0,0,8.85,7c4.82,3.08,10.34,5,16.09,4.09,3.23-.51,6.42-.47,9.41-1.34a33.66,33.66,0,0,0,10.44-5.13,34.38,34.38,0,0,0,5.59-5.19c-.83.06-1.66.12-2.5.12A34.06,34.06,0,0,1,322.93,348.07Z" transform="translate(-224.98 -81.39)"/><path class="cls-25" d="M727.15,165.36c15.77-7.37,30.37-24.59,22.87-52.13a216.59,216.59,0,0,1-37,21.85,216,216,0,0,1-40.51,14.36C689.6,170.5,711.37,172.73,727.15,165.36Z" transform="translate(-224.98 -81.39)"/><path class="cls-26" d="M738,99.39c.34.43.66.87,1,1.32,12.89-3.2,22-3.21,23.87.7,1.94,4.15-4.8,11.78-16.77,20.18a209.48,209.48,0,0,1-30.89,17.5A210.15,210.15,0,0,1,682,151.55c-14.13,3.79-24.3,4-26.24-.09-1.82-3.92,4.06-10.92,14.78-18.76-.14-.53-.27-1.06-.38-1.6-16.58,11-26.24,21.22-23.74,26.57,2.7,5.76,18.81,4.34,40.19-2.58A266.08,266.08,0,0,0,717,143a267.49,267.49,0,0,0,28.84-15.57c19-12,30.46-23.4,27.76-29.17C771.14,92.88,757.1,93.72,738,99.39Z" transform="translate(-224.98 -81.39)"/><path class="cls-27" d="M739.25,96.4c.45.57.88,1.16,1.31,1.76,17.15-4.25,41.26-10.29,43.69-5.09,2.58,5.52-6.38,15.67-22.32,26.85a278.59,278.59,0,0,1-41.09,23.28,278.81,278.81,0,0,1-44.23,16.58c-18.81,5-32.34,5.39-34.92-.12-2.43-5.21,12-17.38,26.29-27.8q-.29-1.06-.51-2.13c-22.06,14.62-41.52,31.07-38.2,38.19,3.59,7.67,25,5.77,53.47-3.43a358.21,358.21,0,0,0,40.51-16.12,354.9,354.9,0,0,0,38.36-20.72c25.32-15.91,40.54-31.13,36.95-38.81C795.24,81.73,764.62,88.86,739.25,96.4Z" transform="translate(-224.98 -81.39)"/><path class="cls-27" d="M739.69,101.65c.34.51.67,1,1,1.58,4.47-.32,7.47.38,8.32,2.21s-.65,4.82-4,8.22c-6,6-17.76,13.67-32.1,20.36s-27.75,10.83-36.22,11.56c-4.79.41-8-.26-8.9-2.17s.53-4.58,3.64-7.81q-.3-.89-.57-1.77c-7.58,6-11.54,11.32-10.09,14.43,1.54,3.28,8.8,3.49,19.16,1.18,9.53-2.12,21.67-6.37,34.42-12.33s23.81-12.54,31.55-18.48c8.42-6.47,12.92-12.17,11.39-15.46C755.78,100.07,749.19,99.71,739.69,101.65Z" transform="translate(-224.98 -81.39)"/><path class="cls-28" d="M748,106.42a41.61,41.61,0,0,0-2-3.8c-.36-.6-.73-1.2-1.11-1.78-.27-.4-.55-.8-.83-1.19s-.72-1-1.1-1.49a43.38,43.38,0,0,0-52.6-12.68.8.8,0,0,0-.16.08h0A43.37,43.37,0,0,0,666.32,134c.13.61.27,1.21.43,1.81s.25.93.38,1.39c.2.67.42,1.34.65,2a41.08,41.08,0,0,0,1.63,4,41.5,41.5,0,0,0,2.57,4.69c9.16-1.06,22.6-5.15,37.18-11.61h0c1.34-.59,2.68-1.2,4-1.83,5-2.35,9.8-4.8,14.19-7.27a125.76,125.76,0,0,0,21.13-14.39q.75-.66,1.44-1.32A41.72,41.72,0,0,0,748,106.42Z" transform="translate(-224.98 -81.39)"/><path class="cls-29" d="M688.62,102.81a38.18,38.18,0,0,1,4.83-18.62c-1,.39-2.08.81-3.1,1.29a.8.8,0,0,0-.16.08h0A43.37,43.37,0,0,0,666.32,134c.13.61.27,1.21.43,1.81s.25.93.38,1.39c.2.67.42,1.34.65,2a41.08,41.08,0,0,0,1.63,4,41.5,41.5,0,0,0,2.57,4.69c9-1,22.23-5,36.57-11.35A38.37,38.37,0,0,1,688.62,102.81Z" transform="translate(-224.98 -81.39)"/><path class="cls-30" d="M384.39,401.6a8.69,8.69,0,1,1-8.69-8.69A8.69,8.69,0,0,1,384.39,401.6Z" transform="translate(-224.98 -81.39)"/><path class="cls-31" d="M292.78,360.38a9.86,9.86,0,1,1-9.86-9.86A9.86,9.86,0,0,1,292.78,360.38Z" transform="translate(-224.98 -81.39)"/><path class="cls-28" d="M306.88,400.21a3.41,3.41,0,1,1-3.41-3.41A3.41,3.41,0,0,1,306.88,400.21Z" transform="translate(-224.98 -81.39)"/><polygon class="cls-31" points="217.98 264.83 207.63 262.8 200.1 270.18 198.83 259.71 189.49 254.83 199.05 250.39 200.81 240 207.99 247.71 218.41 246.18 213.29 255.39 217.98 264.83"/><polygon class="cls-32" points="411.01 26.3 407.33 28.12 406.74 32.17 403.88 29.24 399.84 29.93 401.75 26.3 399.84 22.67 403.88 23.36 406.74 20.43 407.33 24.49 411.01 26.3"/></g></g></g></svg>