<svg id="Main" xmlns="http://www.w3.org/2000/svg" xmlns:xlink="http://www.w3.org/1999/xlink" viewBox="0 0 563.83 134.58"><defs><style>.cls-1,.cls-2,.cls-3,.cls-4,.cls-5{fill:#ff0;stroke-miterlimit:10;stroke-width:2px;}.cls-1{stroke:url(#Dégradé_sans_nom_76);}.cls-2{stroke:url(#Dégradé_sans_nom_76-2);}.cls-3{stroke:url(#Dégradé_sans_nom_76-3);}.cls-4{stroke:url(#Dégradé_sans_nom_76-4);}.cls-5{stroke:url(#Dégradé_sans_nom_76-5);}</style><linearGradient id="Dégradé_sans_nom_76" x1="277.7" y1="272.36" x2="375.04" y2="272.36" gradientUnits="userSpaceOnUse"><stop offset="0" stop-color="#c1165a"/><stop offset="1" stop-color="#ff7300"/></linearGradient><linearGradient id="Dégradé_sans_nom_76-2" x1="356.37" y1="292.66" x2="447.5" y2="292.66" xlink:href="#Dégradé_sans_nom_76"/><linearGradient id="Dégradé_sans_nom_76-3" x1="462.63" y1="292.1" x2="644.06" y2="292.1" xlink:href="#Dégradé_sans_nom_76"/><linearGradient id="Dégradé_sans_nom_76-4" x1="709.62" y1="256.26" x2="726.61" y2="256.26" xlink:href="#Dégradé_sans_nom_76"/><linearGradient id="Dégradé_sans_nom_76-5" x1="619.47" y1="290.98" x2="841.53" y2="290.98" xlink:href="#Dégradé_sans_nom_76"/></defs><title>mexico</title><g id="header"><g id="Mexico"><path class="cls-1" d="M340,319.61c18.76,0,11.9,13.3,8.54,18.34a1.72,1.72,0,0,1-1.4.7,2.26,2.26,0,0,1-1.26-.42c-1.68-1.68-5.32-4.06-12.74-4.48-1,0-2-.14-2.94-.14-11.76,0-27.44,4.2-39.2,4.2-12.32-.14-13.86-13.44-11.2-13.44H280c3.08,0,3.78,4.06,11.48,4.62-7.28-19,40.6-96.32,64.26-114.38-35.56,8.4-50.54,42.7-55.16,59.36-.28.7-.7,1.12-1.26,1.12-3.22,0-9.66-15.54-5.6-23,18.34-34.86,56.84-46.06,72.94-46.06,4.76,0,7.56,1,7.42,2.52l-.14.42c-23.8,15-57.26,84.56-66.22,118.16C316.07,325.07,329,319.61,340,319.61Z" transform="translate(-277.7 -205.07)"/><path class="cls-2" d="M446.41,281.25a5.14,5.14,0,0,1-.28,2.8c-7,13.16-28.84,43.54-43.54,43.54-4.9,0-7.84-5.88-7.84-13a27.27,27.27,0,0,1,1.26-8.12c-2.24,2.52-14.28,21-26.46,21-8.54,0-12.18-6.86-12.18-16.1,0-20,18.34-53.62,39.62-53.62,9.94,0,14.84,7.7,17.22,11.62,1-1.12,3.08-4.2,6.44-4.34h.84c4.06,0,8.68,1.54,8.68,6.3-10.64,11.06-23.1,36.12-23.1,44.94,0,2.24.42,2.66,2,2.66,8.26-.14,23.8-20.58,33.74-37.66.56-1.12,1.12-1.82,1.68-1.82C445.29,279.43,445.85,280.13,446.41,281.25ZM402.73,266h-.14c-13.72.14-31.92,35.28-31.92,48.86,0,3.5,1.12,5.74,3.64,5.74,9.24,0,24.08-23.94,33.46-40.74a59,59,0,0,1,3.5-6.72C410.57,272,408.47,266,402.73,266Z" transform="translate(-277.7 -205.07)"/><path class="cls-3" d="M642,280.41a3.36,3.36,0,0,0-2.38,1.26c-14,18.62-27.86,38.22-43.68,38.22-6,0-8.4-3.78-8.4-9.38a30.3,30.3,0,0,1,2.24-10.78,17.38,17.38,0,0,0,7.84,1.82c14.14,0,28.42-16.52,28.42-30.8,0-9.94-5.18-14.14-13.86-14.14-16.55,0-33,22.38-37.54,41.91-7,10.5-15.52,21.66-21.4,21.51-.7,0-1-.42-1-1.26,0-6.3,20.16-35.42,20.16-42.84-.14-6.58-5.46-10.92-9.8-11.2h-.42c-6.3,0-19.46,9.38-32.48,23.94,3.08-5.74,5.32-10.64,5.32-13.16v-.14c-.14-6.72-5.46-10.92-9.8-11.2h-.42c-9,0-30.1,16.94-46.9,43.4,3.92-11.2,15.26-36.82,27.86-43.68.14,0,.14-.28.14-.7,0-5.32-5.88-6.3-9.94-6.3-9.94.84-32.62,36.12-32.34,59.5v.28c0,3.92,3.22,10.5,10.22,10.5h.7c1.4-.28,1.26-4.06,3.08-8.26,8.12-18.34,36.82-46.06,42-46.2.56,0,.7.28.7.7,0,4.06-15.82,24.08-17.36,41.58v1c0,6.16,4.34,10.92,8.26,11.06.7-1,2.94-5.88,3.78-7.56,8.12-18.34,36.82-46.06,42-46.2.56,0,.7.14.7.7,0,4.06-15.82,24.22-17.36,41.58v1.12c0,6.16,4.62,10.92,8.54,10.92H549c7.89-.19,16.88-9,24.38-18.63.17,10.09,5.1,17.79,17.06,17.79,18.34,0,37.24-19,52.08-44C643.53,281.11,643,280.41,642,280.41Zm-25.34-16.66c9.38.42-4.62,27.44-17.08,27.44a7.93,7.93,0,0,1-5.46-2.1C597.61,278,612.17,263.61,616.65,263.75Z" transform="translate(-277.7 -205.07)"/><path class="cls-4" d="M719.69,261.51c2.52,0,4.76-.84,5.6-2.94,1.68-4.48-3.64-7.56-8.4-7.56-2.52,0-4.9.84-5.88,2.94C709.05,258.15,714.93,261.51,719.69,261.51Z" transform="translate(-277.7 -205.07)"/><path class="cls-5" d="M839.53,280.83a.77.77,0,0,0-.7.28c-1.12,1.12-15.68,24.22-26,26.88,13.58-21.28,18.34-48.58-2.52-50.82-.7,0-1.26-.14-2-.14-17.09,0-35.39,22.86-40,42.44-9.42,11.34-19,20.14-29.41,20.14h-.42c-5.18-.14-6.58-4.76-6.3-9.8,1.26-21.28,18.62-45.36,30.1-45.36a5.77,5.77,0,0,1,1.68.14c-5.18,12-1.54,16.66.42,16.66,3.92,0-.28-6.72,14.7-21.56,0-.14,4.76-4.9-4.76-4.9-3.08,0-6.3,3.92-7.84,6-1.4-.84-2.8-4.48-11.76-4.48-17,0-33.89,23.61-37.89,43.49C709,309.93,701,317.89,696.59,318.07c-1.54,0-2.24-.42-2.24-2.38,0-9,12.6-34.16,23.1-45.22a1,1,0,0,0,.14-.7c0-2.38-2.8-5.46-9.52-5.46-4.51,0-14,14.43-20.11,29.44-11.06,16-21.93,25.52-25.67,25.3-5-.28-2.52-12.46-.7-26,12.88-15.82,25.48-31.22,32.48-31.22a3.88,3.88,0,0,1,1.26.14c.56.28.84-1,.42-1.4a8,8,0,0,0-6.3-2.94c-6.58-.14-16.38,10.22-26.6,22.54.42-9.1-.56-17.36-5.32-21.28a9.14,9.14,0,0,0-5.32-1.4,19.69,19.69,0,0,0-10.36,3.08c-.84.7-1,1.12,0,1.54,9.52,3.22,7.42,19.46,5.46,36.68-9.24,11.2-18.76,21.84-24.08,21.84a3,3,0,0,1-2.66-1.4s-1.26,7.28,4.9,7.28c5,0,14.14-10.36,21.84-18.62-1.12,9.1,1,18.9,9.1,19.32,8.22,0,18.63-9.72,27.19-20.38a43.1,43.1,0,0,0-1.43,10c0,5.88,2.24,9.94,7.7,10.08H690c7.86,0,17.54-9,25.92-19.29,0,.18,0,.36,0,.53,0,10.5,4.9,18.34,17.22,18.34,11.47,0,23.22-7.57,34-19.36-.36,9,3.13,16.42,12.29,18.94a19.4,19.4,0,0,0,5.6.84c6.3,0,13-3.08,21.7-10.78,16.66-2.24,27.3-20.16,33.74-34.16C840.65,281.67,840.09,280.83,839.53,280.83Zm-39.48,27a4.48,4.48,0,0,0-4.2-3.22,6,6,0,0,0-5.74,6,4.86,4.86,0,0,0,2.66,4.48,7.77,7.77,0,0,1-5.6,2.8,3.88,3.88,0,0,1-1.26-.14c-16.52-4.48,13.3-52.64,26.46-52.64a5,5,0,0,1,1.4.28C821.05,267.81,810,299.73,800.05,307.85Z" transform="translate(-277.7 -205.07)"/></g></g></svg>