<svg id="Texte" xmlns="http://www.w3.org/2000/svg" viewBox="0 0 84.27 109.13"><defs><style>.cls-1,.cls-2{fill-rule:evenodd;}.cls-2{fill:#fff;}</style></defs><title>text</title><g id="zaYDGa.tif"><path class="cls-1" d="M574.62,1687.79h4.7v34.43l-4.7,0v0c0-.25,0-.5,0-.75v-32.87c0-.27,0-.55,0-.83Z" transform="translate(-495.05 -1642.74)"/><path class="cls-1" d="M529.43,1642.74v4.7h-9.56l0,0v-4.7Z" transform="translate(-495.05 -1642.74)"/><path class="cls-1" d="M569.75,1736.44c0,.2.06.4.06.6v14.32c0,.15,0,.3,0,.51H519.94V1751q0-6.81,0-13.64c0-.3,0-.6,0-.9v0h4.87v10.69h39.14v-10.69h5.9Z" transform="translate(-495.05 -1642.74)"/><path class="cls-1" d="M510.46,1692.65h4.69v-45.21h4.73l0,0c0,.3.08.6.08.9v63.2h-4.79v-14.21h-4.67v-4.69Z" transform="translate(-495.05 -1642.74)"/><path class="cls-1" d="M499.71,1702h-4.66v-14.15h15.41v4.78l0,0H499.74v1.7c0,2.58,0,5.15-.05,7.72Z" transform="translate(-495.05 -1642.74)"/><path class="cls-1" d="M574.62,1722.19q0,6.66,0,13.33v.92h-4.83l0,0v-14.26h4.85Z" transform="translate(-495.05 -1642.74)"/><path class="cls-1" d="M510.49,1717.49h-5.9a1.66,1.66,0,0,1-.06-.33c0-3.33,0-6.65,0-10a1.57,1.57,0,0,1,.05-.3l0,0h5.91v10.61Z" transform="translate(-495.05 -1642.74)"/><path class="cls-1" d="M515.18,1727.05h-4.69v-9.56l0,0h4.7v9.56Z" transform="translate(-495.05 -1642.74)"/><path class="cls-1" d="M519.88,1736.45h-4.7v-9.4l0,0h4.78c0,2.34,0,4.63,0,6.92,0,.82-.05,1.65-.07,2.48Z" transform="translate(-495.05 -1642.74)"/><path class="cls-1" d="M504.57,1706.88h-4.86V1702l0,0h4.86v4.86Z" transform="translate(-495.05 -1642.74)"/><path class="cls-1" d="M529.42,1647.44h4.75v20.19h10.71v4.85l0,0H534.16v20.1h-4.72v-45.12Z" transform="translate(-495.05 -1642.74)"/><path class="cls-1" d="M544.88,1672.48c.25,0,.5-.06.75-.06h12.7c.25,0,.49,0,.81,0v4.72l0,0h-9.58v15.41h-4.68v-20.11Z" transform="translate(-495.05 -1642.74)"/><path class="cls-1" d="M559.14,1677.18h10.62v4.69l0,0h-5.94v15.43h-4.67v-20.13Z" transform="translate(-495.05 -1642.74)"/><path class="cls-1" d="M569.76,1681.87h4.86v5.92l0,0h-4.86v-5.91Z" transform="translate(-495.05 -1642.74)"/><path class="cls-2" d="M569.78,1681.85v5.91h4.86c0,.28,0,.56,0,.83v32.87c0,.25,0,.5,0,.75h-4.85v14.26h-5.9v10.69H524.74v-10.69h-4.87c0-.83.06-1.66.07-2.48,0-2.29,0-4.58,0-6.92h-4.78v-9.56h-4.7V1706.9h-5.91V1702h-4.86c0-2.57,0-5.14.05-7.72v-1.7h10.74v4.69h4.67v14.21h4.79v-63.2c0-.3-.05-.6-.08-.9h9.58v45.12h4.72v-20.1h10.75v20.11h4.68v-15.41h9.58v20.13h4.67v-15.43Z" transform="translate(-495.05 -1642.74)"/></g></svg>